<?xml version="1.0" standalone="no"?>
<!DOCTYPE svg PUBLIC "-//W3C//DTD SVG 20010904//EN"
 "http://www.w3.org/TR/2001/REC-SVG-20010904/DTD/svg10.dtd">
<svg version="1.0" xmlns="http://www.w3.org/2000/svg"
 width="681.000000pt" height="710.000000pt" viewBox="0 0 681.000000 710.000000"
 preserveAspectRatio="xMidYMid meet">

<g transform="translate(0.000000,710.000000) scale(0.100000,-0.100000)"
fill="#000000" stroke="none">
<path d="M2647 6473 c452 -2 1194 -2 1650 0 455 1 86 2 -822 2 -907 0 -1280
-1 -828 -2z"/>
<path d="M2327 6353 c-3 -5 10 -8 29 -9 21 0 30 3 22 8 -16 10 -45 10 -51 1z"/>
<path d="M2587 6353 c19 -4 23 -12 26 -56 l3 -52 2 52 c2 40 6 53 20 56 9 3
-3 5 -28 4 -25 0 -35 -2 -23 -4z"/>
<path d="M2806 6344 c-4 -9 -4 -19 -1 -22 3 -3 5 0 5 7 0 7 4 9 10 6 6 -3 7 1
4 9 -8 20 -10 20 -18 0z"/>
<path d="M3098 6353 c7 -3 16 -2 19 1 4 3 -2 6 -13 5 -11 0 -14 -3 -6 -6z"/>
<path d="M4310 6305 c0 -32 2 -56 4 -54 8 8 10 98 3 105 -4 4 -7 -19 -7 -51z"/>
<path d="M4531 6344 c0 -11 3 -14 6 -6 3 7 2 16 -1 19 -3 4 -6 -2 -5 -13z"/>
<path d="M4395 6341 c-3 -5 -1 -12 5 -16 5 -3 10 1 10 9 0 18 -6 21 -15 7z"/>
<path d="M3080 6313 c0 -21 3 -24 9 -14 5 8 7 20 4 28 -8 21 -13 15 -13 -14z"/>
<path d="M1682 6310 c0 -14 2 -19 5 -12 2 6 2 18 0 25 -3 6 -5 1 -5 -13z"/>
<path d="M1971 6313 c7 -12 15 -20 18 -17 3 2 -3 12 -13 22 -17 16 -18 16 -5
-5z"/>
<path d="M2923 6295 c0 -22 2 -30 4 -17 2 12 2 30 0 40 -3 9 -5 -1 -4 -23z"/>
<path d="M3550 6320 c-12 -8 -10 -10 8 -10 13 0 20 4 17 10 -7 12 -6 12 -25 0z"/>
<path d="M3610 6320 c-12 -8 -10 -10 8 -10 13 0 20 4 17 10 -7 12 -6 12 -25 0z"/>
<path d="M3706 6314 c-9 -8 -16 -20 -16 -26 0 -6 1 -9 3 -7 1 2 11 14 21 27
22 25 16 30 -8 6z"/>
<path d="M4110 6320 c-9 -6 -10 -10 -3 -10 6 0 15 5 18 10 8 12 4 12 -15 0z"/>
<path d="M4449 6313 c-13 -16 -12 -17 4 -4 9 7 17 15 17 17 0 8 -8 3 -21 -13z"/>
<path d="M5262 6310 c0 -14 2 -19 5 -12 2 6 2 18 0 25 -3 6 -5 1 -5 -13z"/>
<path d="M2024 6305 c-15 -39 27 -69 54 -39 16 17 16 17 0 5 -10 -7 -25 -11
-33 -7 -18 7 -20 42 -2 49 9 4 9 6 -1 6 -7 1 -15 -6 -18 -14z"/>
<path d="M2076 6307 c3 -10 9 -15 12 -12 3 3 0 11 -7 18 -10 9 -11 8 -5 -6z"/>
<path d="M2200 6290 c0 -16 2 -30 4 -30 2 0 6 14 8 30 3 17 1 30 -4 30 -4 0
-8 -13 -8 -30z"/>
<path d="M2425 6309 c-4 -6 -5 -12 -2 -15 2 -3 7 2 10 11 7 17 1 20 -8 4z"/>
<path d="M2477 6296 c6 -31 -19 -45 -45 -25 -16 12 -15 11 1 -6 14 -16 21 -17
35 -9 20 13 28 42 14 56 -6 6 -8 0 -5 -16z"/>
<path d="M2654 6305 c-14 -35 24 -68 52 -44 18 15 15 51 -6 56 -12 4 -12 3 -2
-5 20 -14 10 -47 -13 -47 -15 0 -20 7 -20 28 1 30 -3 34 -11 12z"/>
<path d="M3135 6309 c-4 -6 -5 -12 -2 -15 2 -3 7 2 10 11 7 17 1 20 -8 4z"/>
<path d="M3187 6296 c6 -31 -19 -45 -45 -25 -16 12 -15 11 1 -6 14 -16 21 -17
35 -9 20 13 28 42 14 56 -6 6 -8 0 -5 -16z"/>
<path d="M3220 6285 c0 -19 2 -35 4 -35 2 0 6 16 8 35 2 19 0 35 -4 35 -4 0
-8 -16 -8 -35z"/>
<path d="M3320 6310 c0 -6 9 -15 20 -22 25 -16 25 -25 3 -31 -16 -4 -16 -5 -1
-6 29 -2 31 19 4 44 -14 13 -26 20 -26 15z"/>
<path d="M3513 6285 c0 -22 2 -30 4 -17 2 12 2 30 0 40 -3 9 -5 -1 -4 -23z"/>
<path d="M3745 6310 c3 -5 8 -10 11 -10 2 0 4 5 4 10 0 6 -5 10 -11 10 -5 0
-7 -4 -4 -10z"/>
<path d="M3876 6304 c-5 -14 -4 -15 9 -4 17 14 19 20 6 20 -5 0 -12 -7 -15
-16z"/>
<path d="M4063 6285 c0 -22 2 -30 4 -17 2 12 2 30 0 40 -3 9 -5 -1 -4 -23z"/>
<path d="M4145 6292 c0 -35 -31 -42 -45 -10 -7 17 -9 18 -7 4 3 -28 32 -43 51
-27 17 14 22 46 8 55 -4 2 -8 -7 -7 -22z"/>
<path d="M4180 6305 c0 -8 2 -15 4 -15 2 0 6 7 10 15 3 8 1 15 -4 15 -6 0 -10
-7 -10 -15z"/>
<path d="M4485 6310 c3 -5 8 -10 11 -10 2 0 4 5 4 10 0 6 -5 10 -11 10 -5 0
-7 -4 -4 -10z"/>
<path d="M4613 6285 c0 -22 2 -30 4 -17 2 12 2 30 0 40 -3 9 -5 -1 -4 -23z"/>
<path d="M4650 6309 c0 -5 5 -7 10 -4 6 3 10 8 10 11 0 2 -4 4 -10 4 -5 0 -10
-5 -10 -11z"/>
<path d="M4699 6282 c5 -34 6 -35 9 -8 2 16 0 32 -5 37 -5 5 -7 -7 -4 -29z"/>
<path d="M4737 6313 c-9 -9 -9 -41 1 -46 4 -3 7 8 7 24 0 16 0 29 -1 29 0 0
-4 -3 -7 -7z"/>
<path d="M4785 6278 c0 -40 -2 -43 -27 -43 -14 1 -24 -3 -22 -7 8 -12 38 -10
52 4 13 13 17 88 5 88 -5 0 -8 -19 -8 -42z"/>
<path d="M2350 6306 c0 -2 11 -6 25 -8 14 -3 25 -1 25 3 0 5 -11 9 -25 9 -14
0 -25 -2 -25 -4z"/>
<path d="M2314 6273 c23 -27 49 -29 67 -5 11 14 11 15 -1 5 -19 -18 -40 -16
-64 5 -21 17 -21 17 -2 -5z"/>
<path d="M2780 6280 c0 -5 7 -7 15 -4 8 4 15 8 15 10 0 2 -7 4 -15 4 -8 0 -15
-4 -15 -10z"/>
<path d="M2828 6283 c7 -3 16 -2 19 1 4 3 -2 6 -13 5 -11 0 -14 -3 -6 -6z"/>
<path d="M2990 6281 c0 -7 -4 -9 -10 -6 -6 4 -7 -1 -3 -11 6 -15 7 -15 15 1 6
9 7 19 4 22 -3 4 -6 1 -6 -6z"/>
<path d="M3407 6269 c4 -13 8 -18 11 -10 2 7 -1 18 -6 23 -8 8 -9 4 -5 -13z"/>
<path d="M4532 6270 c0 -14 2 -19 5 -12 2 6 2 18 0 25 -3 6 -5 1 -5 -13z"/>
<path d="M4565 6270 c10 -11 20 -20 23 -20 3 0 -3 9 -13 20 -10 11 -20 20 -23
20 -3 0 3 -9 13 -20z"/>
<path d="M2127 6258 c2 -5 10 -8 18 -8 8 0 16 3 18 8 3 4 -5 7 -18 7 -13 0
-21 -3 -18 -7z"/>
<path d="M3708 6258 c5 -5 16 -8 23 -6 8 3 3 7 -10 11 -17 4 -21 3 -13 -5z"/>
<path d="M3888 6258 c5 -5 16 -8 23 -6 8 3 3 7 -10 11 -17 4 -21 3 -13 -5z"/>
<path d="M4448 6258 c5 -5 16 -8 23 -6 8 3 3 7 -10 11 -17 4 -21 3 -13 -5z"/>
<path d="M3818 6253 c7 -3 16 -2 19 1 4 3 -2 6 -13 5 -11 0 -14 -3 -6 -6z"/>
<path d="M3998 6253 c6 -2 18 -2 25 0 6 3 1 5 -13 5 -14 0 -19 -2 -12 -5z"/>
<path d="M2647 6143 c452 -2 1194 -2 1650 0 455 1 86 2 -822 2 -907 0 -1280
-1 -828 -2z"/>
<path d="M5543 5632 l-31 -3 5 -62 c6 -92 11 -107 32 -107 16 0 20 10 26 63
11 97 6 113 -32 109z"/>
<path d="M2270 5375 l0 -255 35 0 35 0 0 83 1 82 20 -25 c12 -14 46 -51 76
-83 51 -53 59 -58 94 -55 l38 3 -78 85 -79 85 75 83 75 82 -40 0 c-37 0 -45
-6 -111 -77 l-71 -78 0 163 0 162 -35 0 -35 0 0 -255z"/>
<path d="M4730 5606 c0 -12 3 -51 6 -85 6 -56 9 -61 30 -61 21 0 24 5 24 39 0
21 3 59 6 85 l7 46 -37 0 c-31 0 -36 -3 -36 -24z"/>
<path d="M4850 5583 c0 -82 10 -123 31 -123 19 0 23 14 33 118 l5 52 -34 0
-35 0 0 -47z"/>
<path d="M5634 5584 c3 -26 6 -64 6 -85 0 -35 3 -39 25 -39 20 0 25 5 25 24 0
12 3 51 6 85 l7 61 -38 0 -38 0 7 -46z"/>
<path d="M1260 5370 l0 -250 35 0 35 0 2 167 3 168 70 -117 c94 -158 97 -158
190 -1 l70 118 3 -168 2 -167 35 0 35 0 0 250 0 250 -22 0 c-19 0 -40 -29
-117 -155 -52 -85 -97 -155 -100 -155 -4 0 -49 70 -101 155 -77 128 -98 155
-117 155 l-23 0 0 -250z"/>
<path d="M5016 5593 c10 -16 49 -70 86 -121 l69 -94 -17 -26 c-10 -15 -47 -67
-84 -117 -90 -123 -87 -115 -43 -115 37 1 41 4 114 105 l76 105 72 -105 c71
-104 73 -105 112 -105 l40 0 -43 63 c-23 34 -63 92 -89 129 l-48 67 77 108
c43 59 81 114 86 121 5 9 -3 12 -31 12 -37 0 -40 -3 -103 -95 -36 -52 -68 -94
-71 -95 -3 0 -37 43 -74 95 -67 92 -70 95 -108 95 l-39 0 18 -27z"/>
<path d="M1920 5447 c-77 -40 -112 -146 -76 -230 17 -42 76 -93 116 -102 42
-9 92 1 124 26 l26 20 0 -20 c0 -17 6 -21 35 -21 l35 0 0 170 0 170 -35 0
c-28 0 -35 -4 -35 -20 0 -18 -2 -18 -36 5 -47 32 -97 32 -154 2z m163 -77 c54
-61 25 -179 -49 -193 -75 -14 -134 36 -134 113 0 108 112 158 183 80z"/>
<path d="M2684 5451 c-131 -59 -131 -251 0 -316 70 -35 139 -30 196 15 l25 19
-22 22 c-18 18 -25 20 -36 10 -23 -19 -76 -31 -108 -24 -37 7 -79 46 -79 73 0
19 6 20 130 20 l130 0 0 41 c0 119 -122 192 -236 140z m125 -55 c22 -12 51
-52 51 -71 0 -3 -47 -5 -105 -5 -95 0 -104 2 -98 18 22 61 92 88 152 58z"/>
<path d="M3570 5448 c-108 -56 -131 -197 -45 -283 78 -77 204 -68 271 21 36
47 44 132 17 183 -47 89 -155 125 -243 79z m124 -52 c18 -8 41 -24 50 -37 32
-46 12 -144 -33 -169 -11 -5 -38 -10 -60 -10 -113 0 -151 163 -50 213 42 20
51 21 93 3z"/>
<path d="M4390 5463 c-8 -3 -23 -12 -32 -21 -16 -14 -18 -13 -18 1 0 13 -9 17
-35 17 l-35 0 0 -170 0 -170 35 0 35 0 0 110 c0 60 5 120 11 134 16 35 60 51
100 37 35 -12 44 -9 59 19 9 16 5 22 -19 35 -30 15 -72 18 -101 8z"/>
<path d="M3113 5453 c2 -5 33 -75 68 -156 l63 -148 -42 -84 -42 -85 38 0 37 0
108 233 c59 128 107 236 107 240 0 4 -15 7 -34 7 -33 0 -34 -1 -82 -116 -39
-93 -51 -112 -60 -100 -6 9 -28 61 -50 116 l-39 100 -38 0 c-21 0 -36 -3 -34
-7z"/>
<path d="M3891 5338 c5 -145 21 -185 89 -212 52 -21 75 -20 128 4 64 29 82 75
82 218 l0 112 -35 0 -35 0 0 -111 c0 -144 -12 -169 -82 -169 -28 0 -42 6 -57
26 -18 23 -21 41 -21 140 l0 114 -36 0 -36 0 3 -122z"/>
<path d="M3945 4901 c-50 -13 -90 -38 -125 -77 -46 -53 -63 -99 -64 -174 0
-117 71 -214 183 -247 65 -18 120 -13 187 19 32 16 48 19 51 11 2 -6 20 -24
39 -38 34 -26 36 -26 55 -9 19 17 19 18 -22 60 l-41 41 23 44 c31 58 33 176 5
229 -25 48 -74 98 -118 121 -42 21 -129 32 -173 20z m145 -81 c75 -38 112
-129 90 -220 -7 -27 -17 -50 -24 -50 -6 0 -32 20 -56 45 -41 42 -45 44 -62 28
-26 -23 -23 -30 30 -78 45 -41 46 -44 30 -61 -12 -13 -37 -19 -80 -21 -52 -3
-70 0 -103 19 -118 69 -118 268 0 335 51 29 122 30 175 3z"/>
<path d="M5240 4655 l0 -255 35 0 35 0 0 83 1 82 20 -25 c12 -14 46 -51 76
-83 51 -53 59 -58 94 -55 l38 3 -78 85 -79 85 75 83 75 82 -40 0 c-37 0 -45
-6 -111 -77 l-71 -78 0 163 0 162 -35 0 -35 0 0 -255z"/>
<path d="M5600 4655 l0 -255 35 0 35 0 0 255 0 255 -35 0 -35 0 0 -255z"/>
<path d="M930 4650 l0 -252 133 4 c124 3 135 5 180 31 168 99 164 348 -8 436
-44 23 -63 26 -177 29 l-128 4 0 -252z m232 180 c81 -23 131 -91 131 -180 0
-124 -79 -190 -230 -190 l-63 0 0 190 0 190 63 0 c34 0 79 -5 99 -10z"/>
<path d="M2187 4883 c-11 -11 -8 -48 5 -61 30 -30 75 0 64 43 -5 19 -13 25
-35 25 -15 0 -31 -3 -34 -7z"/>
<path d="M2657 4883 c-11 -11 -8 -48 5 -61 30 -30 75 0 64 43 -5 19 -13 25
-35 25 -15 0 -31 -3 -34 -7z"/>
<path d="M4724 4865 c-7 -29 10 -55 36 -55 24 0 42 24 38 52 -2 18 -10 24 -35
26 -28 3 -33 -1 -39 -23z"/>
<path d="M1524 4731 c-131 -59 -131 -251 0 -316 70 -35 139 -30 196 15 l25 19
-21 22 c-21 20 -23 20 -48 4 -33 -22 -95 -24 -131 -5 -28 15 -59 63 -48 74 4
3 64 6 135 6 l128 0 0 41 c0 119 -122 192 -236 140z m125 -55 c22 -12 51 -52
51 -71 0 -3 -47 -5 -105 -5 -95 0 -104 2 -98 18 22 61 92 88 152 58z"/>
<path d="M1914 4731 c-156 -71 -124 -304 47 -336 43 -8 108 8 141 35 l23 19
-22 22 c-20 20 -22 21 -44 5 -61 -42 -161 -2 -175 69 -19 101 72 171 161 125
39 -20 40 -20 59 -1 23 24 13 40 -38 65 -45 21 -101 20 -152 -3z"/>
<path d="M2393 4735 c-37 -16 -53 -42 -53 -87 0 -50 23 -74 94 -98 36 -12 70
-27 76 -35 20 -25 7 -49 -32 -59 -29 -7 -44 -5 -79 12 -41 20 -44 21 -62 4
-18 -16 -18 -17 7 -39 90 -77 237 -37 236 64 -1 52 -17 70 -96 102 -76 31 -95
50 -75 75 18 22 69 20 108 -3 31 -19 31 -19 48 0 15 16 16 21 4 35 -34 41
-117 55 -176 29z"/>
<path d="M2894 4732 c-125 -59 -136 -239 -20 -312 80 -49 185 -30 242 45 36
48 44 133 17 184 -46 87 -151 124 -239 83z m120 -56 c18 -8 41 -24 50 -37 32
-46 12 -144 -33 -169 -11 -5 -38 -10 -60 -10 -128 0 -151 191 -26 223 32 8 34
8 69 -7z"/>
<path d="M3327 4731 c-29 -15 -37 -16 -37 -5 0 9 -12 14 -35 14 l-35 0 0 -170
0 -170 35 0 35 0 0 110 c0 60 5 120 11 134 15 31 59 50 98 41 52 -11 61 -35
61 -167 l0 -118 35 0 35 0 0 121 c0 106 -3 126 -22 160 -37 66 -110 86 -181
50z"/>
<path d="M4986 4740 c-122 -39 -156 -219 -58 -302 67 -56 163 -61 223 -11 30
26 30 26 11 45 -18 19 -21 19 -50 4 -17 -9 -50 -16 -72 -16 -34 0 -48 6 -71
31 -37 39 -41 111 -9 152 37 46 119 55 164 18 9 -8 19 -4 35 13 l22 24 -37 22
c-40 25 -113 35 -158 20z"/>
<path d="M2190 4570 l0 -170 30 0 30 0 0 170 0 170 -30 0 -30 0 0 -170z"/>
<path d="M2660 4570 l0 -170 30 0 30 0 0 170 0 170 -30 0 -30 0 0 -170z"/>
<path d="M4352 4606 c3 -134 3 -135 33 -166 74 -77 202 -58 241 36 9 22 14 73
14 149 l0 115 -35 0 -35 0 0 -120 c0 -107 -2 -122 -20 -140 -30 -30 -83 -30
-115 1 -17 17 -20 35 -23 139 l-4 120 -30 0 -30 0 4 -134z"/>
<path d="M4730 4570 l0 -170 30 0 30 0 0 170 0 170 -30 0 -30 0 0 -170z"/>
<path d="M5735 4721 c3 -11 33 -81 65 -156 l59 -137 -39 -79 c-22 -43 -40 -81
-40 -84 0 -4 16 -5 36 -3 l36 3 109 235 c109 235 109 235 83 238 -14 2 -31 1
-38 -1 -6 -3 -31 -51 -55 -108 -24 -57 -47 -108 -51 -112 -4 -5 -15 11 -24 35
-76 189 -75 188 -113 188 -29 0 -33 -3 -28 -19z"/>
<path d="M2230 3935 l0 -255 35 0 35 0 0 116 c0 63 4 123 10 133 13 25 64 45
95 37 13 -3 34 -16 45 -28 18 -19 20 -35 20 -140 l0 -118 35 0 35 0 0 123 c0
140 -13 178 -71 209 -43 23 -85 23 -132 -1 l-37 -19 0 99 0 99 -35 0 -35 0 0
-255z"/>
<path d="M4224 4176 c-76 -21 -104 -56 -104 -131 0 -40 5 -52 33 -79 18 -19
63 -44 105 -60 76 -29 102 -54 102 -96 0 -38 -20 -60 -65 -70 -50 -11 -104 2
-143 35 -29 24 -29 24 -47 5 -18 -20 -17 -21 6 -46 38 -41 78 -57 143 -57 68
0 112 18 145 59 26 34 28 113 4 155 -16 27 -35 39 -155 94 -42 19 -60 33 -64
51 -20 81 85 116 173 59 23 -15 26 -15 44 1 27 24 24 30 -23 57 -53 31 -101
38 -154 23z"/>
<path d="M4883 4179 c-77 -14 -139 -63 -179 -139 -27 -52 -26 -172 3 -225 48
-90 128 -138 228 -138 70 0 123 23 172 75 170 177 16 472 -224 427z m141 -83
c88 -52 117 -177 62 -271 -70 -118 -256 -114 -315 8 -28 57 -28 137 0 194 43
88 164 121 253 69z"/>
<path d="M2937 4173 c-11 -18 -197 -475 -197 -484 0 -6 14 -9 31 -7 28 3 34 9
52 56 l20 52 116 0 117 0 19 -55 c17 -52 20 -55 52 -55 18 0 33 3 33 8 0 4
-44 115 -98 247 -81 197 -102 241 -119 243 -12 2 -23 0 -26 -5z m66 -206 c20
-51 37 -98 37 -105 0 -8 -25 -12 -86 -12 -65 0 -85 3 -81 13 55 139 80 197 86
197 4 0 24 -42 44 -93z"/>
<path d="M3260 3930 l0 -250 35 0 35 0 0 250 0 250 -35 0 -35 0 0 -250z"/>
<path d="M3574 4166 c-163 -71 -200 -310 -65 -428 49 -43 97 -61 166 -61 63 0
138 26 164 57 12 14 11 19 -4 36 -17 19 -18 19 -60 -5 -49 -29 -138 -34 -183
-11 -118 62 -136 242 -33 329 55 46 165 50 223 7 l30 -22 21 20 c25 26 15 42
-47 71 -50 25 -163 28 -212 7z"/>
<path d="M3940 3930 l0 -250 35 0 35 0 0 250 0 250 -35 0 -35 0 0 -250z"/>
<path d="M4520 3930 l0 -250 30 0 29 0 3 233 c2 129 2 241 0 250 -2 11 -13 17
-33 17 l-29 0 0 -250z"/>
<path d="M5279 3960 c-1 -121 -2 -232 -3 -247 -1 -24 3 -28 31 -31 l33 -3 2
186 3 186 139 -186 c105 -141 144 -185 158 -183 10 2 19 6 18 11 0 4 0 115 0
247 l0 240 -30 0 -30 0 0 -187 0 -186 -140 186 c-100 133 -146 187 -160 187
-19 0 -20 -8 -21 -220z"/>
<path d="M1807 4163 c-11 -11 -8 -48 5 -61 30 -30 75 0 64 43 -5 19 -13 25
-35 25 -15 0 -31 -3 -34 -7z"/>
<path d="M2020 4095 l0 -75 -46 0 c-44 0 -45 -1 -42 -27 3 -25 7 -28 46 -31
l42 -3 0 -140 0 -139 30 0 30 0 0 140 0 140 45 0 c43 0 45 1 45 30 0 29 -2 30
-45 30 l-45 0 0 75 0 75 -30 0 -30 0 0 -75z"/>
<path d="M1241 4008 c0 -7 28 -83 62 -168 81 -202 87 -204 147 -50 23 61 44
110 45 108 2 -2 21 -50 43 -108 33 -90 42 -105 61 -105 20 0 30 19 82 150 80
204 76 185 36 185 l-35 0 -38 -110 c-22 -60 -42 -110 -45 -110 -4 0 -24 50
-45 110 -33 94 -42 110 -61 110 -18 0 -27 -16 -60 -110 -21 -60 -41 -110 -44
-110 -4 0 -24 48 -45 108 -38 104 -40 107 -72 110 -22 2 -32 -1 -31 -10z"/>
<path d="M1810 3850 l0 -170 30 0 30 0 0 170 0 170 -30 0 -30 0 0 -170z"/>
<path d="M5063 3313 c-7 -2 -13 -11 -13 -18 0 -7 -6 -16 -12 -18 -10 -4 -10
-8 -1 -14 6 -4 13 -22 16 -38 l4 -30 2 33 c0 21 6 32 16 32 21 0 19 17 -2 23
-15 4 -15 6 4 12 13 4 20 11 17 16 -6 10 -12 10 -31 2z"/>
<path d="M990 3255 c0 -30 5 -55 10 -55 6 0 10 17 10 38 l1 37 16 -29 16 -30
23 29 23 29 4 -40 c3 -30 4 -26 5 20 2 50 0 57 -13 46 -8 -6 -17 -20 -20 -31
-9 -27 -21 -24 -42 11 -9 17 -21 30 -25 30 -4 0 -8 -25 -8 -55z"/>
<path d="M1303 3295 c-12 -23 -5 -95 8 -95 5 0 9 13 9 29 0 16 6 32 13 34 8 4
9 8 1 14 -6 4 -13 15 -16 23 -4 12 -7 11 -15 -5z"/>
<path d="M1400 3264 c-25 -57 -25 -72 -2 -51 23 21 36 21 52 2 25 -30 28 -14
7 40 -12 30 -26 55 -30 55 -4 0 -17 -21 -27 -46z m40 -16 c0 -5 -7 -8 -15 -8
-17 0 -18 2 -9 25 5 13 8 14 15 3 5 -7 9 -16 9 -20z"/>
<path d="M1490 3300 c0 -5 5 -10 10 -10 6 0 10 5 10 10 0 6 -4 10 -10 10 -5 0
-10 -4 -10 -10z"/>
<path d="M1610 3299 c0 -5 5 -7 10 -4 6 3 10 8 10 11 0 2 -4 4 -10 4 -5 0 -10
-5 -10 -11z"/>
<path d="M1710 3300 c0 -5 5 -10 10 -10 6 0 10 5 10 10 0 6 -4 10 -10 10 -5 0
-10 -4 -10 -10z"/>
<path d="M2000 3303 c0 -5 7 -17 15 -27 8 -11 15 -32 15 -48 0 -15 5 -28 10
-28 6 0 10 12 10 26 0 14 9 39 21 55 11 16 16 29 10 29 -6 0 -16 -10 -22 -22
l-12 -22 -17 22 c-18 22 -30 28 -30 15z"/>
<path d="M2370 3266 c-25 -59 -25 -74 -2 -53 23 21 48 22 56 2 3 -8 10 -15 15
-15 10 0 -23 86 -40 104 -5 5 -17 -11 -29 -38z m40 -18 c0 -5 -7 -8 -15 -8
-17 0 -18 2 -9 25 5 13 8 14 15 3 5 -7 9 -16 9 -20z"/>
<path d="M2460 3255 c0 -30 5 -55 10 -55 6 0 10 25 10 55 0 30 -4 55 -10 55
-5 0 -10 -25 -10 -55z"/>
<path d="M2530 3254 l0 -55 38 3 c30 2 38 7 40 26 4 30 -16 55 -40 49 -13 -4
-18 0 -18 14 0 10 -4 19 -10 19 -5 0 -10 -25 -10 -56z m66 -5 c10 -17 -23 -46
-37 -32 -7 7 -9 19 -6 27 7 18 33 21 43 5z"/>
<path d="M2770 3289 c0 -11 -5 -17 -10 -14 -6 3 -19 3 -31 0 -16 -5 -19 -14
-17 -38 3 -28 7 -32 36 -35 l32 -3 0 55 c0 31 -2 56 -5 56 -3 0 -5 -9 -5 -21z
m-3 -45 c8 -22 -18 -37 -36 -20 -7 8 -10 19 -7 25 10 16 36 13 43 -5z"/>
<path d="M2860 3291 c0 -14 -5 -18 -18 -14 -25 6 -46 -21 -38 -52 5 -21 12
-25 41 -25 l35 0 0 55 c0 30 -4 55 -10 55 -5 0 -10 -9 -10 -19z m-2 -53 c-2
-13 -10 -23 -18 -23 -8 0 -16 10 -18 23 -3 17 2 22 18 22 16 0 21 -5 18 -22z"/>
<path d="M3130 3255 c0 -30 5 -55 10 -55 6 0 10 14 10 31 0 41 32 36 42 -6 6
-26 6 -25 5 10 -2 35 -5 40 -24 39 -16 0 -23 5 -23 18 0 10 -4 18 -10 18 -5 0
-10 -25 -10 -55z"/>
<path d="M3460 3300 c0 -5 5 -10 10 -10 6 0 10 5 10 10 0 6 -4 10 -10 10 -5 0
-10 -4 -10 -10z"/>
<path d="M3500 3257 c0 -31 4 -57 8 -57 8 0 4 100 -4 109 -2 2 -4 -21 -4 -52z"/>
<path d="M3530 3255 c0 -30 5 -55 10 -55 6 0 10 25 10 55 0 30 -4 55 -10 55
-5 0 -10 -25 -10 -55z"/>
<path d="M3600 3255 c0 -30 5 -55 10 -55 6 0 10 14 10 31 0 41 32 36 42 -6 6
-26 6 -25 5 10 -2 35 -5 40 -24 39 -16 0 -23 5 -23 18 0 10 -4 18 -10 18 -5 0
-10 -25 -10 -55z"/>
<path d="M3770 3255 c0 -30 5 -55 10 -55 6 0 10 25 10 55 0 30 -4 55 -10 55
-5 0 -10 -25 -10 -55z"/>
<path d="M4172 3255 c0 -34 3 -52 7 -42 6 17 8 17 20 3 7 -9 18 -16 24 -16 5
0 3 8 -7 19 -15 16 -15 19 -1 31 8 7 15 17 15 23 0 5 -8 3 -18 -6 -26 -24 -30
-22 -35 16 -2 17 -4 5 -5 -28z"/>
<path d="M4420 3291 c0 -14 -5 -18 -18 -14 -25 6 -46 -21 -38 -52 5 -21 12
-25 41 -25 l35 0 0 55 c0 30 -4 55 -10 55 -5 0 -10 -9 -10 -19z m-2 -53 c-2
-13 -10 -23 -18 -23 -8 0 -16 10 -18 23 -3 17 2 22 18 22 16 0 21 -5 18 -22z"/>
<path d="M4620 3299 c0 -5 5 -7 10 -4 6 3 10 8 10 11 0 2 -4 4 -10 4 -5 0 -10
-5 -10 -11z"/>
<path d="M4720 3300 c0 -5 5 -10 10 -10 6 0 10 5 10 10 0 6 -4 10 -10 10 -5 0
-10 -4 -10 -10z"/>
<path d="M5700 3291 c0 -14 -5 -18 -18 -14 -24 6 -44 -19 -40 -49 2 -18 10
-24 36 -26 l32 -3 0 55 c0 31 -2 56 -5 56 -3 0 -5 -9 -5 -19z m-3 -47 c3 -8 1
-20 -6 -27 -14 -14 -47 15 -37 32 10 16 36 13 43 -5z"/>
<path d="M5830 3299 c0 -5 5 -7 10 -4 6 3 10 8 10 11 0 2 -4 4 -10 4 -5 0 -10
-5 -10 -11z"/>
<path d="M5860 3255 c0 -30 5 -55 10 -55 6 0 10 25 10 55 0 30 -4 55 -10 55
-5 0 -10 -25 -10 -55z"/>
<path d="M1132 3268 c-25 -25 -6 -68 29 -68 10 0 21 5 25 11 4 7 0 9 -14 5
-11 -4 -23 -2 -27 4 -4 6 6 10 24 10 34 0 36 2 21 31 -12 21 -40 25 -58 7z
m48 -18 c0 -5 -9 -10 -20 -10 -11 0 -20 5 -20 10 0 6 9 10 20 10 11 0 20 -4
20 -10z"/>
<path d="M1220 3266 c-20 -26 -8 -61 23 -64 15 -2 27 2 27 8 0 6 -4 8 -10 5
-5 -3 -18 -1 -27 4 -15 9 -13 10 15 11 33 0 42 16 20 38 -16 16 -33 15 -48 -2z
m40 -16 c0 -5 -7 -10 -15 -10 -8 0 -15 5 -15 10 0 6 7 10 15 10 8 0 15 -4 15
-10z"/>
<path d="M1490 3240 c0 -22 5 -40 10 -40 6 0 10 18 10 40 0 22 -4 40 -10 40
-5 0 -10 -18 -10 -40z"/>
<path d="M1536 3264 c-19 -18 -19 -20 -6 -45 11 -20 60 -27 60 -9 0 5 -10 9
-22 7 -32 -3 -32 37 0 41 12 2 20 8 17 13 -9 14 -32 11 -49 -7z"/>
<path d="M1613 3240 c0 -25 2 -35 4 -22 2 12 2 32 0 45 -2 12 -4 2 -4 -23z"/>
<path d="M1647 3273 c-13 -13 -7 -32 13 -38 11 -3 20 -11 20 -16 0 -6 -9 -7
-20 -4 -11 4 -20 2 -20 -4 0 -15 47 -14 56 0 4 7 -4 20 -17 30 l-24 19 23 0
c13 0 20 4 17 10 -7 11 -38 13 -48 3z"/>
<path d="M1710 3241 c0 -23 5 -41 10 -41 6 0 10 15 10 34 0 19 -4 38 -10 41
-6 4 -10 -10 -10 -34z"/>
<path d="M1756 3264 c-19 -19 -20 -25 -3 -48 19 -26 61 -18 65 12 7 44 -32 67
-62 36z m50 -15 c10 -17 -23 -46 -37 -32 -7 7 -9 19 -6 27 7 18 33 21 43 5z"/>
<path d="M1841 3235 c1 -37 2 -38 8 -10 9 42 41 47 41 6 0 -17 5 -31 10 -31
15 0 12 56 -3 68 -7 6 -23 10 -35 9 -19 -1 -22 -7 -21 -42z"/>
<path d="M2090 3266 c-6 -8 -10 -25 -8 -38 4 -30 46 -38 65 -12 17 23 16 29
-3 48 -19 20 -38 20 -54 2z m47 -22 c3 -8 1 -20 -6 -27 -14 -14 -47 15 -37 32
10 16 36 13 43 -5z"/>
<path d="M2173 3245 c2 -36 5 -40 27 -40 22 0 25 4 27 40 l1 40 -6 -35 c-4
-22 -13 -35 -22 -35 -9 0 -18 13 -22 35 l-6 35 1 -40z"/>
<path d="M2250 3239 c0 -22 5 -39 10 -39 6 0 10 14 10 30 0 24 4 30 21 30 11
0 18 4 15 9 -3 5 -17 9 -31 9 -22 0 -25 -5 -25 -39z"/>
<path d="M2633 3245 c2 -36 5 -40 27 -40 22 0 25 4 27 40 l1 40 -6 -35 c-4
-22 -13 -35 -22 -35 -9 0 -18 13 -22 35 l-6 35 1 -40z"/>
<path d="M2890 3276 c0 -2 6 -19 14 -37 10 -23 11 -39 5 -51 -5 -10 -6 -18 -1
-18 12 0 57 98 49 106 -4 4 -11 -6 -18 -22 l-11 -29 -14 28 c-13 24 -24 35
-24 23z"/>
<path d="M3010 3272 c0 -19 22 -72 30 -72 5 0 12 10 16 22 l6 21 14 -24 13
-24 16 39 c18 43 12 63 -6 22 l-13 -27 -12 28 c-12 28 -13 28 -19 6 -8 -26
-25 -31 -25 -9 0 8 -4 18 -10 21 -5 3 -10 2 -10 -3z"/>
<path d="M3230 3266 c-6 -8 -10 -25 -8 -38 4 -30 46 -38 65 -12 17 23 16 29
-3 48 -19 20 -38 20 -54 2z m45 -30 c0 -22 -14 -29 -34 -17 -19 12 -6 43 16
39 10 -2 18 -12 18 -22z"/>
<path d="M3340 3272 c0 -19 22 -72 30 -72 5 0 12 10 16 22 l6 21 14 -24 13
-24 16 39 c18 43 12 63 -6 22 l-13 -27 -11 28 c-12 28 -12 28 -19 6 -8 -26
-26 -31 -26 -9 0 8 -4 18 -10 21 -5 3 -10 2 -10 -3z"/>
<path d="M3460 3240 c0 -22 5 -40 10 -40 6 0 10 18 10 40 0 22 -4 40 -10 40
-5 0 -10 -18 -10 -40z"/>
<path d="M3700 3266 c-20 -26 -8 -61 23 -64 15 -2 27 2 27 8 0 6 -4 8 -10 5
-5 -3 -18 -1 -27 4 -15 9 -13 10 15 11 33 0 42 16 20 38 -16 16 -33 15 -48 -2z
m40 -16 c0 -5 -7 -10 -15 -10 -8 0 -15 5 -15 10 0 6 7 10 15 10 8 0 15 -4 15
-10z"/>
<path d="M3810 3223 c0 -29 5 -53 10 -53 6 0 10 7 10 15 0 8 8 15 19 15 30 0
46 26 33 55 -9 19 -18 24 -42 22 -29 -2 -30 -3 -30 -54z m58 15 c-2 -13 -10
-23 -18 -23 -8 0 -16 10 -18 23 -3 17 2 22 18 22 16 0 21 -5 18 -22z"/>
<path d="M3941 3236 c1 -38 2 -39 8 -11 9 42 41 47 41 6 0 -17 5 -31 10 -31 6
0 10 14 10 30 0 20 5 30 15 30 10 0 15 -10 15 -30 0 -16 5 -30 10 -30 14 0 12
57 -2 67 -7 4 -34 8 -60 9 l-48 1 1 -41z"/>
<path d="M4081 3267 c-28 -28 -4 -67 41 -67 26 0 28 3 28 38 0 34 -3 37 -29
39 -15 1 -33 -3 -40 -10z m47 -29 c-2 -13 -10 -23 -18 -23 -8 0 -16 10 -18 23
-3 17 2 22 18 22 16 0 21 -5 18 -22z"/>
<path d="M4252 3268 c-25 -25 -6 -68 29 -68 10 0 21 5 25 11 4 7 0 9 -14 5
-11 -4 -23 -2 -27 4 -4 6 4 10 19 10 19 0 26 5 26 19 0 28 -37 40 -58 19z m48
-18 c0 -5 -9 -10 -20 -10 -11 0 -20 5 -20 10 0 6 9 10 20 10 11 0 20 -4 20
-10z"/>
<path d="M4462 3268 c-25 -25 -6 -68 29 -68 10 0 21 5 25 11 4 7 0 9 -14 5
-11 -4 -23 -2 -27 4 -4 6 6 10 24 10 34 0 36 2 21 31 -12 21 -40 25 -58 7z
m48 -18 c0 -5 -9 -10 -20 -10 -11 0 -20 5 -20 10 0 6 9 10 20 10 11 0 20 -4
20 -10z"/>
<path d="M4552 3271 c-8 -5 -12 -21 -10 -37 2 -23 9 -30 31 -32 15 -2 27 1 27
7 0 6 -6 8 -13 5 -17 -6 -41 21 -32 36 3 5 15 10 26 10 11 0 17 5 14 10 -7 12
-25 13 -43 1z"/>
<path d="M4623 3240 c0 -25 2 -35 4 -22 2 12 2 32 0 45 -2 12 -4 2 -4 -23z"/>
<path d="M4660 3266 c-9 -12 -7 -17 9 -28 27 -17 27 -31 0 -23 -15 5 -19 4
-15 -4 9 -14 43 -14 52 1 4 6 -3 19 -16 30 l-22 18 21 0 c12 0 19 5 16 10 -9
14 -31 12 -45 -4z"/>
<path d="M4727 3273 c-11 -10 -8 -73 3 -73 6 0 10 18 10 40 0 41 -2 45 -13 33z"/>
<path d="M4766 3264 c-19 -19 -20 -25 -3 -48 19 -26 61 -18 65 12 7 44 -32 67
-62 36z m50 -15 c10 -17 -23 -46 -37 -32 -7 7 -9 19 -6 27 7 18 33 21 43 5z"/>
<path d="M4850 3238 c0 -21 5 -38 10 -38 6 0 10 14 10 30 0 20 5 30 15 30 10
0 15 -10 15 -30 0 -16 5 -30 10 -30 14 0 12 57 -2 67 -7 4 -23 8 -35 8 -20 1
-23 -4 -23 -37z"/>
<path d="M4943 3264 c-4 -10 1 -22 10 -29 24 -17 21 -28 -5 -20 -18 6 -20 4
-12 -5 16 -16 48 -9 52 11 1 9 -7 21 -20 27 l-23 11 23 0 c13 1 20 5 17 11
-10 16 -35 12 -42 -6z"/>
<path d="M5106 3264 c-19 -19 -20 -25 -3 -48 19 -26 61 -18 65 12 7 44 -32 67
-62 36z m50 -15 c3 -6 0 -17 -7 -25 -18 -17 -44 -2 -36 20 7 18 33 21 43 5z"/>
<path d="M5191 3235 c2 -32 3 -34 6 -11 3 17 12 30 24 33 28 8 23 23 -6 21
-22 -2 -25 -6 -24 -43z"/>
<path d="M5280 3275 c0 -4 7 -19 16 -36 9 -17 12 -39 8 -52 -11 -38 13 -6 35
46 21 49 14 67 -9 20 l-13 -28 -9 28 c-8 23 -28 39 -28 22z"/>
<path d="M5376 3264 c-19 -19 -20 -25 -3 -48 19 -26 61 -18 65 12 7 44 -32 67
-62 36z m50 -15 c10 -17 -23 -46 -37 -32 -7 7 -9 19 -6 27 7 18 33 21 43 5z"/>
<path d="M5463 3245 c2 -36 5 -40 27 -40 22 0 25 4 27 40 l1 40 -6 -35 c-4
-22 -13 -35 -22 -35 -9 0 -18 13 -22 35 l-6 35 1 -40z"/>
<path d="M5540 3238 c0 -21 5 -38 10 -38 6 0 10 14 10 30 0 20 5 30 15 30 8 0
15 4 15 10 0 5 -11 9 -25 8 -22 -2 -25 -7 -25 -40z"/>
<path d="M5740 3264 c-7 -7 -9 -25 -6 -39 5 -21 12 -25 41 -25 34 0 35 1 35
38 0 36 -2 39 -29 40 -16 0 -35 -6 -41 -14z m48 -26 c-2 -13 -10 -23 -18 -23
-8 0 -16 10 -18 23 -3 17 2 22 18 22 16 0 21 -5 18 -22z"/>
<path d="M5833 3240 c0 -25 2 -35 4 -22 2 12 2 32 0 45 -2 12 -4 2 -4 -23z"/>
<path d="M5905 3244 c11 -27 12 -41 4 -56 -9 -16 -8 -19 2 -16 16 5 63 108 49
108 -5 0 -12 -9 -15 -20 -3 -11 -10 -20 -15 -20 -5 0 -12 9 -15 20 -3 11 -11
20 -16 20 -5 0 -3 -16 6 -36z"/>
<path d="M1930 3199 c0 -11 5 -17 10 -14 6 3 10 13 10 21 0 8 -4 14 -10 14 -5
0 -10 -9 -10 -21z"/>
<path d="M1263 3073 c-7 -2 -13 -11 -13 -18 0 -7 -6 -16 -12 -18 -10 -4 -10
-8 -1 -14 6 -4 13 -22 16 -38 l4 -30 2 33 c1 23 6 32 19 32 16 1 16 1 0 14
-22 16 -23 26 -3 26 8 0 15 5 15 10 0 11 -7 12 -27 3z"/>
<path d="M1450 3060 c0 -5 5 -10 10 -10 6 0 10 5 10 10 0 6 -4 10 -10 10 -5 0
-10 -4 -10 -10z"/>
<path d="M1813 3056 c3 -8 11 -32 18 -55 11 -37 29 -56 29 -32 0 5 5 22 11 38
l11 28 12 -32 c16 -47 27 -44 43 11 13 45 11 82 -3 40 -19 -59 -20 -60 -33
-21 -16 46 -28 47 -37 2 -7 -40 -20 -38 -29 5 -4 17 -11 30 -17 30 -6 0 -8 -6
-5 -14z"/>
<path d="M1970 3015 c0 -30 5 -55 10 -55 6 0 10 14 10 30 0 20 5 30 15 30 10
0 15 -10 15 -30 0 -16 5 -30 10 -30 6 0 10 13 10 29 0 31 -22 57 -40 46 -6 -3
-10 3 -10 14 0 12 -4 21 -10 21 -5 0 -10 -25 -10 -55z"/>
<path d="M2463 3055 c-12 -23 -5 -95 8 -95 5 0 9 13 9 29 0 16 6 32 13 34 8 4
9 8 1 14 -6 4 -13 15 -16 23 -4 12 -7 11 -15 -5z"/>
<path d="M2640 3056 c0 -8 -6 -17 -12 -20 -10 -5 -10 -7 0 -12 6 -3 12 -19 12
-35 0 -16 4 -29 9 -29 10 0 20 67 13 93 -5 20 -22 23 -22 3z"/>
<path d="M2685 3060 c3 -5 8 -10 11 -10 2 0 4 5 4 10 0 6 -5 10 -11 10 -5 0
-7 -4 -4 -10z"/>
<path d="M3360 3015 c0 -30 5 -55 10 -55 6 0 10 14 10 30 0 23 5 30 19 30 15
0 21 -9 24 -32 4 -27 4 -25 3 7 -1 35 -4 40 -23 39 -16 0 -23 5 -23 18 0 10
-4 18 -10 18 -5 0 -10 -25 -10 -55z"/>
<path d="M3450 3060 c0 -5 5 -10 10 -10 6 0 10 5 10 10 0 6 -4 10 -10 10 -5 0
-10 -4 -10 -10z"/>
<path d="M3820 3015 c0 -30 5 -55 10 -55 6 0 10 14 10 31 0 41 32 36 42 -6 6
-26 6 -25 5 10 -2 35 -5 40 -24 39 -16 0 -23 5 -23 18 0 10 -4 18 -10 18 -5 0
-10 -25 -10 -55z"/>
<path d="M4695 3060 c3 -5 8 -10 11 -10 2 0 4 5 4 10 0 6 -5 10 -11 10 -5 0
-7 -4 -4 -10z"/>
<path d="M4883 3045 c-6 -14 -7 -25 -2 -25 5 0 9 -13 9 -30 0 -16 5 -30 10
-30 6 0 10 14 10 30 0 17 4 30 9 30 5 0 4 11 -2 25 -7 14 -14 25 -17 25 -3 0
-10 -11 -17 -25z"/>
<path d="M4973 3045 c-6 -14 -7 -25 -2 -25 5 0 9 -13 9 -30 0 -16 5 -30 10
-30 6 0 10 14 10 30 0 17 4 30 9 30 5 0 4 11 -2 25 -7 14 -14 25 -17 25 -3 0
-10 -11 -17 -25z"/>
<path d="M5120 3015 c0 -30 5 -55 10 -55 6 0 10 25 10 55 0 30 -4 55 -10 55
-5 0 -10 -25 -10 -55z"/>
<path d="M5152 3015 c2 -30 6 -55 10 -55 5 0 8 7 8 17 0 15 1 15 18 0 26 -24
39 -21 17 3 -17 19 -17 21 0 40 22 24 9 27 -17 3 -17 -15 -18 -14 -18 15 0 18
-5 32 -10 32 -7 0 -10 -22 -8 -55z"/>
<path d="M5280 3056 c0 -8 -6 -17 -12 -20 -10 -5 -10 -7 0 -12 6 -3 12 -19 12
-35 0 -16 5 -29 10 -29 6 0 10 14 10 30 0 34 17 41 22 9 4 -30 33 -47 56 -33
42 27 14 87 -32 66 -25 -11 -46 0 -46 25 0 7 -4 13 -10 13 -5 0 -10 -6 -10
-14z m98 -58 c-2 -13 -10 -23 -18 -23 -8 0 -16 10 -18 23 -3 17 2 22 18 22 16
0 21 -5 18 -22z"/>
<path d="M5463 3018 c-20 -52 -21 -80 -2 -45 6 9 19 17 29 17 10 0 23 -8 29
-17 5 -10 12 -15 15 -12 8 7 -34 109 -44 109 -4 0 -16 -24 -27 -52z m35 -17
c-15 -5 -21 7 -13 26 7 17 8 17 15 -2 4 -11 3 -22 -2 -24z"/>
<path d="M5560 3059 c0 -5 5 -7 10 -4 6 3 10 8 10 11 0 2 -4 4 -10 4 -5 0 -10
-5 -10 -11z"/>
<path d="M5670 3060 c0 -5 5 -10 10 -10 6 0 10 5 10 10 0 6 -4 10 -10 10 -5 0
-10 -4 -10 -10z"/>
<path d="M992 3028 c-25 -25 -6 -68 29 -68 10 0 21 4 24 10 4 6 -4 9 -17 7
-17 -1 -24 4 -26 21 -3 18 1 22 23 22 15 0 24 4 20 10 -8 14 -38 13 -53 -2z"/>
<path d="M1066 3024 c-19 -18 -19 -20 -6 -45 14 -24 56 -25 69 -1 7 14 6 25
-5 40 -18 26 -37 28 -58 6z m50 -15 c3 -6 0 -17 -7 -25 -18 -17 -44 -2 -36 20
7 18 33 21 43 5z"/>
<path d="M1150 2996 c0 -42 7 -45 13 -5 2 13 11 25 20 27 13 3 17 -4 17 -27 0
-17 5 -31 10 -31 15 0 12 56 -3 68 -7 6 -23 10 -35 9 -19 -1 -22 -7 -22 -41z"/>
<path d="M1303 3005 c2 -35 5 -40 27 -40 22 0 25 4 27 40 1 40 1 40 -5 6 -9
-44 -29 -51 -38 -14 -10 47 -13 50 -11 8z"/>
<path d="M1387 3033 c-13 -13 -7 -32 13 -38 11 -3 20 -11 20 -16 0 -6 -9 -7
-20 -4 -11 4 -20 2 -20 -4 0 -15 47 -14 56 0 4 7 -4 20 -17 30 l-24 19 23 0
c13 0 20 4 17 10 -7 11 -38 13 -48 3z"/>
<path d="M1450 3001 c0 -23 5 -41 10 -41 6 0 10 15 10 34 0 19 -4 38 -10 41
-6 4 -10 -10 -10 -34z"/>
<path d="M1490 3025 c-26 -32 13 -81 48 -59 34 22 22 74 -18 74 -10 0 -23 -7
-30 -15z m48 -27 c-2 -13 -10 -23 -18 -23 -8 0 -16 10 -18 23 -3 17 2 22 18
22 16 0 21 -5 18 -22z"/>
<path d="M1581 2995 c1 -37 2 -38 8 -10 9 42 41 47 41 6 0 -17 5 -31 10 -31
15 0 12 56 -3 68 -7 6 -23 10 -35 9 -19 -1 -22 -7 -21 -42z"/>
<path d="M1670 3026 c-9 -12 -7 -17 9 -28 27 -17 27 -31 0 -23 -15 5 -19 4
-15 -4 9 -14 43 -14 52 1 4 6 -3 19 -16 30 l-22 18 21 0 c12 0 19 5 16 10 -9
14 -31 12 -45 -4z"/>
<path d="M2050 3035 c0 -4 7 -19 15 -36 12 -23 13 -34 4 -50 -9 -17 -8 -20 2
-17 16 5 63 108 49 108 -5 0 -12 -9 -15 -20 -3 -11 -10 -20 -15 -20 -5 0 -12
9 -15 20 -6 18 -25 29 -25 15z"/>
<path d="M2170 3032 c0 -19 22 -72 30 -72 5 0 12 10 16 22 l6 21 14 -24 13
-24 16 39 c18 43 12 63 -6 22 l-13 -27 -12 28 c-12 28 -13 28 -19 6 -8 -26
-25 -31 -25 -9 0 8 -4 18 -10 21 -5 3 -10 2 -10 -3z"/>
<path d="M2302 3031 c-8 -5 -12 -21 -10 -37 2 -25 8 -29 36 -32 31 -3 32 -2
32 35 0 33 -3 39 -22 40 -13 1 -29 -1 -36 -6z m43 -35 c0 -22 -14 -29 -34 -17
-19 12 -6 43 16 39 10 -2 18 -12 18 -22z"/>
<path d="M2387 3033 c-13 -13 -7 -32 13 -38 11 -3 20 -11 20 -16 0 -6 -9 -7
-21 -4 -15 5 -19 4 -15 -4 9 -14 43 -14 52 0 4 7 -4 20 -17 30 l-24 19 23 0
c13 0 20 4 17 10 -7 11 -38 13 -48 3z"/>
<path d="M2516 3024 c-19 -18 -19 -20 -6 -45 11 -19 60 -27 60 -10 0 5 -8 7
-19 4 -10 -3 -22 0 -25 6 -5 7 4 11 23 11 32 0 41 16 19 38 -16 16 -33 15 -52
-4z m44 -14 c0 -5 -9 -10 -20 -10 -11 0 -20 5 -20 10 0 6 9 10 20 10 11 0 20
-4 20 -10z"/>
<path d="M2687 3033 c-11 -10 -8 -73 3 -73 6 0 10 18 10 40 0 41 -2 45 -13 33z"/>
<path d="M2725 3032 c-9 -10 -5 -72 5 -72 6 0 10 14 10 30 0 20 5 30 15 30 10
0 15 -10 15 -30 0 -16 5 -30 10 -30 6 0 10 14 10 31 0 41 32 36 42 -6 6 -26 6
-25 5 10 l-2 40 -53 1 c-28 0 -54 -2 -57 -4z"/>
<path d="M2866 3024 c-19 -18 -19 -20 -6 -45 11 -19 60 -27 60 -10 0 5 -8 7
-19 4 -10 -3 -22 0 -25 6 -5 7 4 11 23 11 32 0 41 16 19 38 -16 16 -33 15 -52
-4z m44 -14 c0 -5 -9 -10 -20 -10 -11 0 -20 5 -20 10 0 6 9 10 20 10 11 0 20
-4 20 -10z"/>
<path d="M2983 3024 c-4 -10 1 -22 10 -29 24 -17 21 -28 -5 -20 -18 6 -20 4
-12 -5 16 -16 48 -9 52 11 1 9 -7 21 -20 27 l-23 11 23 0 c13 1 20 5 17 11
-10 16 -35 12 -42 -6z"/>
<path d="M3052 3028 c-25 -25 -6 -68 29 -68 10 0 21 5 25 11 4 7 0 9 -14 5
-11 -4 -23 -2 -27 4 -4 6 6 10 24 10 34 0 36 2 21 31 -12 21 -40 25 -58 7z
m48 -18 c0 -5 -9 -10 -20 -10 -11 0 -20 5 -20 10 0 6 9 10 20 10 11 0 20 -4
20 -10z"/>
<path d="M3140 3024 c-7 -7 -9 -25 -6 -39 5 -21 12 -25 41 -25 34 0 35 1 35
38 0 36 -2 39 -29 40 -16 0 -35 -6 -41 -14z m50 -23 c0 -26 -17 -36 -35 -21
-18 15 -8 40 16 40 12 0 19 -7 19 -19z"/>
<path d="M3225 3031 c-9 -9 -5 -60 5 -66 6 -4 10 7 10 24 0 25 4 31 21 31 11
0 18 4 14 9 -5 10 -42 11 -50 2z"/>
<path d="M3296 3024 c-19 -18 -19 -20 -6 -45 11 -20 60 -27 60 -9 0 5 -10 9
-22 7 -32 -3 -32 37 0 41 12 2 20 8 17 13 -9 14 -32 11 -49 -7z"/>
<path d="M3457 3033 c-11 -10 -8 -73 3 -73 6 0 10 18 10 40 0 41 -2 45 -13 33z"/>
<path d="M3491 2995 c1 -37 2 -38 8 -10 9 42 41 47 41 6 0 -17 5 -31 10 -31
15 0 12 56 -3 68 -7 6 -23 10 -35 9 -19 -1 -22 -7 -21 -42z"/>
<path d="M3581 3027 c-26 -26 1 -76 35 -63 10 4 14 2 11 -6 -2 -7 -16 -12 -31
-11 -14 1 -24 -2 -21 -8 10 -15 62 -10 69 7 3 9 6 32 6 52 0 34 -3 37 -29 39
-15 1 -33 -3 -40 -10z m49 -27 c0 -13 -7 -20 -20 -20 -13 0 -20 7 -20 20 0 13
7 20 20 20 13 0 20 -7 20 -20z"/>
<path d="M3700 3032 c0 -19 22 -72 30 -72 5 0 12 10 16 22 l6 21 14 -24 13
-24 16 39 c18 43 12 63 -6 22 l-13 -27 -12 28 c-12 28 -13 28 -19 6 -8 -26
-25 -31 -25 -9 0 8 -4 18 -10 21 -5 3 -10 2 -10 -3z"/>
<path d="M3916 3018 c-11 -15 -12 -26 -5 -40 10 -19 59 -26 59 -7 0 5 -4 7
-10 4 -5 -3 -18 -1 -27 4 -15 9 -13 10 15 11 33 0 42 16 20 38 -18 18 -35 15
-52 -10z m44 -8 c0 -5 -7 -10 -15 -10 -8 0 -15 5 -15 10 0 6 7 10 15 10 8 0
15 -4 15 -10z"/>
<path d="M3995 3032 c-9 -10 -5 -72 5 -72 6 0 10 14 10 30 0 23 5 30 19 30 15
0 21 -9 24 -32 4 -27 4 -25 3 7 -1 36 -4 40 -28 41 -15 1 -30 -1 -33 -4z"/>
<path d="M4110 3036 c0 -2 6 -19 14 -37 10 -23 11 -39 5 -51 -5 -10 -6 -18 -1
-18 12 0 57 98 49 106 -4 4 -11 -6 -18 -22 l-11 -29 -14 28 c-13 24 -24 35
-24 23z"/>
<path d="M4200 3025 c-26 -32 13 -81 48 -59 34 22 22 74 -18 74 -10 0 -23 -7
-30 -15z m48 -27 c-2 -13 -10 -23 -18 -23 -8 0 -16 10 -18 23 -3 17 2 22 18
22 16 0 21 -5 18 -22z"/>
<path d="M4286 3028 c-17 -37 14 -78 48 -65 11 4 16 18 16 42 0 22 -4 34 -10
30 -5 -3 -10 -20 -10 -36 0 -42 -23 -33 -31 12 -4 26 -7 30 -13 17z"/>
<path d="M4410 3026 c-20 -26 -8 -61 23 -64 15 -2 27 1 27 7 0 6 -6 8 -13 5
-17 -6 -41 21 -32 36 3 5 15 10 26 10 11 0 17 5 14 10 -9 14 -31 12 -45 -4z"/>
<path d="M4486 3024 c-19 -18 -19 -20 -6 -45 7 -12 21 -19 40 -19 28 0 30 3
30 38 0 33 -3 38 -24 40 -14 1 -32 -5 -40 -14z m50 -15 c10 -17 -23 -46 -37
-32 -7 7 -9 19 -6 27 7 18 33 21 43 5z"/>
<path d="M4570 2998 c0 -21 5 -38 10 -38 6 0 10 14 10 30 0 20 5 30 15 30 9 0
15 -9 15 -24 0 -14 5 -28 10 -31 6 -4 10 6 10 24 0 33 -13 46 -47 46 -20 1
-23 -4 -23 -37z"/>
<path d="M4698 3034 c-5 -4 -8 -27 -8 -50 0 -32 -4 -44 -17 -47 -13 -4 -12 -5
5 -6 12 0 25 5 28 13 8 20 0 99 -8 90z"/>
<path d="M4733 3005 c2 -36 5 -40 27 -40 22 0 25 4 27 40 l1 40 -6 -35 c-4
-22 -13 -35 -22 -35 -9 0 -18 13 -22 35 l-6 35 1 -40z"/>
<path d="M4814 3025 c-7 -18 3 -35 22 -35 8 0 14 -5 14 -11 0 -6 -9 -9 -20 -6
-11 3 -20 1 -20 -4 0 -5 11 -9 25 -9 32 0 34 33 3 48 l-23 11 23 0 c13 1 20 5
17 11 -9 15 -35 12 -41 -5z"/>
<path d="M5036 3024 c-19 -18 -19 -20 -6 -45 7 -12 21 -19 40 -19 28 0 30 3
30 38 0 33 -3 38 -24 40 -14 1 -32 -5 -40 -14z m50 -15 c10 -17 -23 -46 -37
-32 -7 7 -9 19 -6 27 7 18 33 21 43 5z"/>
<path d="M5563 3000 c0 -25 2 -35 4 -22 2 12 2 32 0 45 -2 12 -4 2 -4 -23z"/>
<path d="M5602 3028 c-25 -25 -6 -68 29 -68 10 0 21 4 24 10 4 6 -4 9 -17 7
-17 -1 -24 4 -26 21 -3 18 1 22 23 22 15 0 24 4 20 10 -8 14 -38 13 -53 -2z"/>
<path d="M5670 3001 c0 -23 5 -41 10 -41 6 0 10 15 10 34 0 19 -4 38 -10 41
-6 4 -10 -10 -10 -34z"/>
<path d="M5710 3026 c-9 -12 -7 -17 9 -28 27 -17 27 -31 0 -23 -15 5 -19 4
-15 -4 9 -14 43 -14 52 1 4 6 -3 19 -16 30 l-22 18 21 0 c12 0 19 5 16 10 -9
14 -31 12 -45 -4z"/>
<path d="M5777 3033 c-11 -10 -8 -73 3 -73 6 0 10 18 10 40 0 41 -2 45 -13 33z"/>
<path d="M5816 3018 c-11 -15 -12 -26 -5 -40 13 -24 55 -23 69 1 13 25 13 27
-6 45 -21 22 -40 20 -58 -6z m51 -14 c3 -8 1 -20 -6 -27 -14 -14 -47 15 -37
32 10 16 36 13 43 -5z"/>
<path d="M5900 2998 c0 -21 5 -38 10 -38 6 0 10 14 10 30 0 20 5 30 15 30 13
0 21 -25 16 -52 0 -5 4 -8 9 -8 14 0 12 57 -2 67 -7 4 -23 8 -35 8 -20 1 -23
-4 -23 -37z"/>
<path d="M1740 2970 c0 -5 5 -10 10 -10 6 0 10 5 10 10 0 6 -4 10 -10 10 -5 0
-10 -4 -10 -10z"/>
<path d="M2026 2570 c-49 -15 -106 -62 -134 -109 -23 -39 -27 -58 -27 -121 0
-64 4 -82 27 -121 33 -56 104 -106 162 -114 22 -3 678 -5 1456 -3 1572 3 1438
-3 1509 69 52 52 66 86 66 169 0 83 -14 117 -66 169 -71 72 65 66 -1529 68
-789 1 -1448 -2 -1464 -7z m2398 -195 c-6 -15 -8 -15 -16 -2 -4 8 -5 23 -2 32
6 15 8 15 16 2 4 -8 5 -23 2 -32z m-2037 9 l17 -26 23 28 c29 37 42 24 14 -14
-12 -17 -21 -44 -21 -61 0 -17 -4 -31 -10 -31 -5 0 -10 10 -10 23 0 12 -11 39
-25 59 -27 41 -30 48 -15 48 5 0 17 -12 27 -26z m451 -43 c22 -55 21 -80 -2
-48 -16 21 -55 22 -62 2 -7 -17 -24 -21 -24 -5 0 23 51 123 59 114 4 -5 17
-33 29 -63z m59 43 c-9 -9 -28 6 -21 18 4 6 10 6 17 -1 6 -6 8 -13 4 -17z
m124 3 c-13 -13 -26 -3 -16 12 3 6 11 8 17 5 6 -4 6 -10 -1 -17z m474 -2 c48
-47 18 -105 -55 -105 l-40 0 0 58 c0 32 3 62 7 65 15 16 65 6 88 -18z m245 5
c0 -13 7 -20 18 -20 27 0 42 -20 42 -57 0 -32 -19 -48 -21 -18 -1 8 -3 20 -4
25 -1 6 -3 15 -4 20 0 6 -8 10 -16 10 -10 0 -15 -11 -15 -35 0 -19 -4 -35 -10
-35 -6 0 -10 28 -10 65 0 37 4 65 10 65 6 0 10 -9 10 -20z m90 0 c0 -14 7 -20
24 -20 31 0 48 -22 44 -57 -3 -25 -7 -28 -45 -31 l-43 -3 0 65 c0 37 4 66 10
66 6 0 10 -9 10 -20z m450 -45 l0 -65 -33 0 c-39 0 -57 15 -57 47 0 16 -6 23
-20 23 -16 0 -20 -7 -20 -35 0 -19 -4 -35 -10 -35 -5 0 -10 20 -10 45 0 41 2
45 24 45 14 0 28 -5 31 -10 5 -8 11 -7 21 1 8 6 23 9 34 6 16 -4 20 0 20 19 0
13 5 24 10 24 6 0 10 -28 10 -65z m-1140 45 c0 -5 -4 -10 -10 -10 -5 0 -10 5
-10 10 0 6 5 10 10 10 6 0 10 -4 10 -10z m1390 -15 c0 -8 9 -20 19 -27 20 -12
20 -12 0 -26 -10 -7 -19 -22 -19 -33 0 -10 -4 -19 -10 -19 -5 0 -10 9 -10 19
0 11 -9 26 -19 33 -20 14 -20 14 0 26 10 7 19 19 19 27 0 8 5 15 10 15 6 0 10
-7 10 -15z m-2005 -29 c23 -34 5 -66 -36 -66 -41 0 -61 40 -34 70 24 27 51 25
70 -4z m45 -11 c0 -23 5 -35 14 -35 15 0 26 21 26 51 0 10 5 19 10 19 14 0 12
-53 -3 -74 -8 -11 -23 -17 -38 -14 -21 3 -24 9 -27 46 -2 25 1 42 7 42 6 0 11
-16 11 -35z m135 24 c4 -5 -3 -9 -13 -9 -21 0 -32 -18 -32 -51 0 -10 -4 -19
-10 -19 -5 0 -10 20 -10 43 0 42 1 44 30 45 16 0 32 -4 35 -9z m195 -34 c0
-25 -4 -45 -10 -45 -5 0 -10 20 -10 45 0 25 5 45 10 45 6 0 10 -20 10 -45z
m82 30 c-1 -5 -12 -10 -25 -10 -35 0 -30 -39 6 -43 15 -2 25 -8 22 -13 -9 -13
-49 -11 -63 3 -18 18 -15 55 6 67 20 13 58 10 54 -4z m40 -12 c5 -36 -1 -63
-13 -63 -5 0 -9 20 -9 45 0 49 15 62 22 18z m80 12 c-2 -5 -12 -9 -22 -7 -28
5 -25 -7 6 -18 16 -7 24 -16 22 -28 -4 -20 -45 -29 -61 -13 -8 8 -3 11 19 11
l29 1 -27 15 c-31 16 -34 24 -16 42 15 15 54 12 50 -3z m38 -30 c0 -25 -4 -45
-10 -45 -5 0 -10 20 -10 45 0 25 5 45 10 45 6 0 10 -20 10 -45z m94 29 c34
-34 9 -78 -41 -72 -22 2 -29 9 -31 31 -6 50 38 75 72 41z m104 0 c10 -18 3
-74 -9 -74 -5 0 -9 16 -9 36 0 28 -3 35 -17 32 -10 -2 -19 -10 -19 -18 -1 -8
-2 -23 -3 -32 -2 -38 -21 -15 -21 25 0 43 1 44 35 45 21 1 38 -4 43 -14z m282
-31 c0 -42 -1 -43 -33 -43 -38 0 -57 15 -57 45 0 30 19 44 57 43 32 -1 33 -2
33 -45z m72 32 c-2 -5 -10 -9 -18 -7 -22 5 -16 -15 7 -21 28 -8 21 -41 -10
-45 -13 -2 -28 1 -34 7 -8 8 -3 11 19 12 28 0 28 1 7 11 -22 11 -30 37 -16 52
10 10 49 3 45 -9z m303 -5 c27 -30 7 -70 -35 -70 -42 0 -62 40 -35 70 10 11
26 20 35 20 9 0 25 -9 35 -20z m113 -29 l3 -42 -43 3 c-39 3 -43 6 -46 31 -5
39 14 59 52 54 29 -3 31 -6 34 -46z m347 -61 c-6 -9 -9 -9 -16 1 -10 17 0 34
13 21 6 -6 7 -16 3 -22z"/>
<path d="M2797 2356 c-11 -27 -8 -36 8 -36 16 0 17 5 6 34 -7 18 -8 18 -14 2z"/>
<path d="M3420 2345 c0 -43 1 -45 30 -45 40 0 58 32 35 66 -9 15 -25 24 -40
24 -23 0 -25 -4 -25 -45z"/>
<path d="M3836 2335 c-8 -22 1 -35 25 -35 15 0 20 6 17 22 -4 27 -33 36 -42
13z"/>
<path d="M4217 2344 c-4 -4 -7 -16 -7 -26 0 -14 6 -19 23 -16 14 2 22 10 22
23 0 20 -25 32 -38 19z"/>
<path d="M2473 2339 c-15 -15 -5 -39 17 -39 22 0 32 24 17 39 -6 6 -14 11 -17
11 -3 0 -11 -5 -17 -11z"/>
<path d="M3187 2343 c-15 -14 -7 -43 12 -43 24 0 33 13 25 34 -6 16 -25 21
-37 9z"/>
<path d="M3557 2344 c-4 -4 -7 -16 -7 -26 0 -14 6 -19 23 -16 14 2 22 10 22
23 0 20 -25 32 -38 19z"/>
<path d="M3938 2338 c-8 -21 2 -38 22 -38 22 0 33 23 17 39 -15 15 -34 14 -39
-1z"/>
<path d="M4047 2343 c-15 -14 -7 -43 12 -43 24 0 33 13 25 34 -6 16 -25 21
-37 9z"/>
<path d="M3598 1373 l-3 -58 -73 -3 -73 -3 6 -32 c4 -18 8 -32 9 -32 0 0 28
-13 61 -30 69 -35 113 -89 126 -156 4 -24 8 -95 9 -156 l0 -113 34 0 c18 0 39
7 46 15 10 12 58 406 60 488 0 15 -10 17 -70 17 l-70 0 0 60 c0 60 0 60 -30
60 -28 0 -29 -1 -32 -57z"/>
<path d="M4315 1375 c-18 -17 -25 -35 -25 -61 0 -72 62 -155 100 -134 33 18
63 71 68 121 4 41 1 51 -21 73 -35 35 -89 35 -122 1z m103 -57 c4 -18 -23 -48
-43 -48 -15 0 -45 27 -45 41 0 5 9 18 21 30 18 18 23 19 42 6 12 -8 23 -21 25
-29z"/>
<path d="M2475 1333 c-87 -11 -351 -56 -355 -60 -3 -3 13 -3 35 1 308 50 456
64 471 45 24 -30 58 -165 70 -277 l6 -62 -33 -14 c-73 -30 -494 -81 -536 -65
-21 8 -33 38 -62 149 -7 26 -9 29 -10 11 -2 -37 29 -144 47 -165 15 -16 27
-18 127 -11 134 8 407 50 443 67 21 10 28 21 30 51 6 74 -31 248 -68 316 -9
18 -19 21 -73 20 -34 -1 -75 -4 -92 -6z"/>
<path d="M4466 1205 c-9 -13 -16 -27 -16 -29 0 -3 43 -7 96 -8 84 -3 98 -6
110 -23 12 -18 11 -24 -2 -43 -14 -21 -23 -22 -142 -22 -108 0 -132 -3 -159
-20 -63 -38 -81 -120 -40 -181 36 -54 55 -59 229 -59 l157 0 -17 30 -17 30
-137 0 c-125 0 -140 2 -158 20 -11 11 -20 33 -20 50 0 17 9 39 20 50 18 18 33
20 145 20 145 0 178 11 201 67 12 28 13 42 3 70 -17 54 -58 73 -155 73 -76 0
-83 -2 -98 -25z"/>
<path d="M2501 1209 c-23 -9 -24 -12 -17 -78 10 -113 24 -129 22 -26 l-1 89
30 6 c43 8 65 1 58 -18 -4 -15 -3 -15 6 -2 8 12 13 8 26 -22 33 -80 5 -134
-78 -149 l-42 -8 48 3 c68 5 97 34 97 96 0 69 -33 114 -85 117 -22 1 -51 -2
-64 -8z"/>
<path d="M3293 1186 c-78 -25 -133 -85 -133 -145 0 -21 3 -21 221 -21 l221 0
-7 33 c-22 111 -167 175 -302 133z"/>
<path d="M2053 1135 c0 -22 2 -30 4 -17 2 12 2 30 0 40 -3 9 -5 -1 -4 -23z"/>
<path d="M2156 1150 c-16 -5 -33 -15 -37 -22 -16 -25 -9 -102 11 -135 19 -32
22 -33 77 -31 l58 1 -55 6 c-51 6 -56 9 -72 41 -31 60 -23 107 19 118 66 16
69 15 87 -27 9 -23 16 -54 16 -69 0 -15 5 -34 11 -42 18 -25 2 87 -18 128 -20
40 -44 48 -97 32z"/>
<path d="M2371 1114 c0 -11 3 -14 6 -6 3 7 2 16 -1 19 -3 4 -6 -2 -5 -13z"/>
<path d="M2592 1110 c0 -14 2 -19 5 -12 2 6 2 18 0 25 -3 6 -5 1 -5 -13z"/>
<path d="M4726 1029 c-21 -17 -26 -29 -26 -66 0 -74 61 -154 101 -132 29 15
69 92 69 133 0 75 -83 113 -144 65z m94 -49 c12 -22 4 -46 -17 -54 -46 -18
-81 35 -44 65 25 20 47 16 61 -11z"/>
<path d="M2187 989 c7 -7 15 -10 18 -7 3 3 -2 9 -12 12 -14 6 -15 5 -6 -5z"/>
<path d="M3160 935 l0 -35 218 2 217 3 0 30 0 30 -217 3 -218 2 0 -35z"/>
<path d="M3162 823 l3 -28 209 -3 c219 -3 225 -1 226 41 0 16 -17 17 -221 17
l-220 0 3 -27z"/>
<path d="M1320 595 c-7 -8 -12 -26 -12 -40 0 -14 5 -32 12 -40 14 -17 66 -20
75 -5 4 7 -2 9 -19 4 -32 -8 -56 10 -56 41 0 29 24 49 50 42 11 -3 18 -1 14 4
-8 14 -50 10 -64 -6z"/>
<path d="M1423 555 c0 -33 2 -45 4 -27 2 18 2 45 0 60 -2 15 -4 0 -4 -33z"/>
<path d="M1572 555 c0 -34 3 -52 7 -42 6 17 8 17 20 3 7 -9 18 -16 24 -16 5 0
2 9 -8 20 -15 17 -16 22 -4 37 12 16 11 16 -8 0 -22 -19 -22 -19 -26 20 -2 26
-4 20 -5 -22z"/>
<path d="M2019 588 c-3 -13 -2 -39 1 -58 6 -42 20 -27 22 25 2 42 -17 69 -23
33z"/>
<path d="M2073 555 c-1 -42 1 -51 6 -30 4 21 12 30 26 30 14 0 22 -9 26 -30
l7 -30 1 31 c1 35 -18 57 -42 48 -11 -4 -17 2 -20 18 -2 13 -4 -4 -4 -37z"/>
<path d="M2442 589 c-4 -11 -6 -37 -3 -57 l6 -37 3 33 c2 20 9 32 18 32 8 0
14 5 14 11 0 5 -4 8 -9 4 -5 -3 -12 -1 -16 5 -3 6 4 14 17 19 l23 10 -23 0
c-14 1 -25 -7 -30 -20z"/>
<path d="M2533 585 c-6 -14 -7 -25 -2 -25 5 0 10 -15 10 -32 l2 -33 4 30 c3
16 10 33 16 37 9 6 9 10 1 16 -6 4 -13 12 -15 19 -2 7 -9 1 -16 -12z"/>
<path d="M2593 555 c0 -33 2 -49 4 -35 7 37 23 53 39 39 8 -6 11 -15 8 -20 -3
-5 0 -9 5 -9 16 0 13 25 -3 39 -7 6 -20 9 -29 5 -11 -4 -17 2 -20 18 -2 13 -4
-4 -4 -37z"/>
<path d="M2891 559 l-1 -56 33 1 c25 1 33 6 35 24 4 30 -16 54 -39 47 -13 -4
-19 0 -22 17 -2 13 -5 -2 -6 -33z m57 -23 c-2 -11 -10 -22 -19 -24 -21 -4 -33
26 -18 44 15 18 41 5 37 -20z"/>
<path d="M3663 584 c-6 -13 -7 -24 -2 -24 5 0 10 -15 10 -32 l2 -33 4 30 c3
16 8 32 12 35 4 3 2 15 -4 26 l-11 22 -11 -24z"/>
<path d="M3921 593 c-1 -13 -7 -23 -13 -23 -10 0 -10 -2 -1 -8 6 -4 13 -21 16
-37 l4 -30 2 32 c0 17 7 34 14 36 8 4 9 8 1 14 -6 4 -14 15 -17 23 -4 10 -6 8
-6 -7z"/>
<path d="M4128 589 c-5 -36 3 -89 13 -89 8 0 14 47 9 80 -3 27 -18 33 -22 9z"/>
<path d="M4581 558 c-12 -28 -19 -53 -16 -56 2 -3 7 3 11 12 8 21 50 21 63 -1
18 -31 12 3 -9 51 -12 25 -22 46 -24 46 -2 0 -13 -23 -25 -52z m39 -4 c0 -8
-7 -14 -15 -14 -17 0 -18 2 -9 24 7 18 24 12 24 -10z"/>
<path d="M1496 564 c-19 -19 -20 -36 -4 -52 15 -15 45 -16 53 -2 3 6 -1 7 -10
4 -20 -8 -45 13 -38 32 3 8 17 14 32 14 20 0 23 2 11 10 -20 13 -26 12 -44 -6z"/>
<path d="M1692 568 c-15 -15 -16 -55 -1 -63 21 -14 59 5 59 28 0 24 -17 47
-35 47 -6 0 -16 -5 -23 -12z m43 -33 c0 -30 -39 -27 -43 3 -3 20 0 23 20 20
15 -2 23 -10 23 -23z"/>
<path d="M1788 573 c-14 -3 -18 -14 -17 -41 1 -28 3 -31 6 -12 3 14 10 31 15
38 16 19 41 -6 35 -35 -2 -13 0 -23 4 -23 12 0 11 37 -1 61 -11 19 -13 20 -42
12z"/>
<path d="M1902 568 c-17 -17 -15 -55 4 -62 23 -9 44 -7 44 3 0 5 -8 7 -19 4
-10 -3 -22 0 -25 6 -5 7 4 11 23 11 36 0 42 23 12 40 -24 13 -24 13 -39 -2z
m29 -26 c-28 -4 -40 6 -21 18 9 6 20 4 29 -3 12 -10 11 -13 -8 -15z"/>
<path d="M1983 540 c0 -25 2 -35 4 -22 2 12 2 32 0 45 -2 12 -4 2 -4 -23z"/>
<path d="M2170 566 c-27 -34 12 -88 43 -57 7 7 4 8 -10 5 -12 -3 -24 -1 -27 5
-5 7 4 11 23 11 34 0 39 11 15 34 -19 20 -28 20 -44 2z m40 -16 c0 -5 -9 -10
-20 -10 -11 0 -20 5 -20 10 0 6 9 10 20 10 11 0 20 -4 20 -10z"/>
<path d="M2260 572 c-19 -9 -23 -27 -13 -56 6 -18 8 -16 13 14 3 20 11 34 18
33 7 -2 12 2 12 7 0 11 -8 12 -30 2z"/>
<path d="M2358 569 c-33 -19 -15 -69 24 -69 15 0 38 27 38 44 0 7 -31 36 -38
36 -4 0 -15 -5 -24 -11z m45 -23 c6 -15 -11 -36 -29 -36 -14 0 -27 28 -18 41
8 14 41 11 47 -5z"/>
<path d="M2686 564 c-19 -19 -20 -36 -4 -52 14 -14 44 -16 52 -3 4 5 -2 7 -13
4 -10 -3 -22 0 -25 6 -5 7 3 11 18 11 19 0 26 5 26 19 0 10 -7 22 -16 25 -21
8 -20 8 -38 -10z m44 -15 c0 -5 -9 -9 -20 -9 -19 0 -26 11 -14 23 8 8 34 -3
34 -14z"/>
<path d="M2806 565 c-31 -31 -12 -65 36 -65 25 0 28 3 28 35 0 19 -4 35 -9 35
-5 0 -16 3 -24 6 -8 3 -22 -2 -31 -11z m47 -19 c9 -22 -19 -42 -37 -26 -19 15
-10 40 14 40 10 0 20 -6 23 -14z"/>
<path d="M2992 568 c-32 -32 0 -78 42 -62 30 11 14 74 -19 74 -6 0 -16 -5 -23
-12z m46 -32 c-4 -25 -36 -34 -44 -12 -8 21 13 46 32 39 8 -3 14 -15 12 -27z"/>
<path d="M3160 566 c-27 -34 12 -88 43 -57 7 7 4 8 -10 5 -12 -3 -24 -1 -27 5
-5 7 4 11 23 11 34 0 39 11 15 34 -19 20 -28 20 -44 2z m40 -17 c0 -5 -9 -9
-20 -9 -22 0 -27 16 -7 23 15 5 27 -1 27 -14z"/>
<path d="M3318 569 c-21 -12 -23 -40 -6 -57 14 -14 48 -16 48 -3 0 5 -8 7 -19
4 -11 -3 -21 2 -25 12 -8 22 1 35 25 35 11 0 17 5 14 10 -8 12 -15 12 -37 -1z"/>
<path d="M3390 566 c-16 -21 -9 -60 13 -64 41 -8 64 48 28 68 -25 13 -26 13
-41 -4z m46 -41 c-3 -9 -14 -15 -23 -13 -22 4 -30 38 -11 49 18 11 43 -15 34
-36z"/>
<path d="M3488 573 c-14 -3 -18 -14 -17 -41 2 -29 3 -31 6 -10 9 56 45 55 56
-2 4 -22 4 -22 6 6 1 27 -14 56 -28 53 -4 -1 -14 -3 -23 -6z"/>
<path d="M3567 573 c-13 -13 -7 -32 13 -38 11 -3 20 -11 20 -17 0 -6 -9 -8
-20 -5 -11 3 -20 1 -20 -5 0 -5 10 -8 22 -6 30 4 35 34 7 41 -11 3 -18 10 -15
16 4 6 14 8 24 5 14 -5 15 -4 2 5 -18 13 -24 13 -33 4z"/>
<path d="M3726 564 c-19 -18 -19 -20 -6 -45 17 -31 70 -18 70 17 0 14 -27 44
-40 44 -5 0 -16 -7 -24 -16z m50 -15 c3 -6 -1 -18 -10 -27 -15 -15 -17 -15
-32 0 -19 19 -11 38 16 38 10 0 22 -5 26 -11z"/>
<path d="M3847 573 c-13 -13 -7 -32 13 -38 11 -3 20 -11 20 -17 0 -6 -9 -8
-20 -5 -11 3 -20 1 -20 -5 0 -5 10 -8 22 -6 30 4 35 34 7 41 -11 3 -18 10 -15
16 4 6 14 7 23 4 11 -4 14 -3 9 5 -8 13 -29 16 -39 5z"/>
<path d="M3978 569 c-38 -22 -14 -69 34 -69 24 0 28 4 28 30 0 19 -7 33 -19
40 -23 12 -22 12 -43 -1z m40 -31 c-4 -27 -33 -36 -42 -13 -8 22 1 35 25 35
15 0 20 -6 17 -22z"/>
<path d="M4073 573 c-8 -3 -12 -20 -11 -41 l1 -37 4 33 c3 19 10 32 19 32 8 0
14 5 14 10 0 11 -7 12 -27 3z"/>
<path d="M4260 556 c-10 -27 -30 -27 -30 0 0 8 -4 14 -10 14 -5 0 -3 -15 5
-32 9 -22 10 -39 4 -50 -5 -10 -6 -18 -2 -18 10 1 55 101 48 108 -2 3 -9 -7
-15 -22z"/>
<path d="M4308 569 c-37 -21 -9 -77 32 -64 22 7 27 44 8 63 -14 14 -18 14 -40
1z m40 -33 c-4 -25 -36 -34 -44 -12 -8 21 13 46 32 39 8 -3 14 -15 12 -27z"/>
<path d="M4483 572 c-15 -10 -24 -60 -12 -67 5 -4 9 8 9 24 0 21 5 31 15 31 8
0 15 5 15 10 0 12 -10 13 -27 2z"/>
<path d="M4722 568 c-20 -20 -14 -56 9 -63 12 -4 25 -3 30 2 6 6 1 9 -13 9
-17 -1 -24 5 -26 22 -3 21 5 26 38 23 13 -2 13 -1 0 8 -19 14 -24 13 -38 -1z"/>
<path d="M4833 573 c-20 -7 -15 -31 7 -38 11 -3 20 -11 20 -17 0 -6 -9 -8 -20
-5 -11 3 -20 1 -20 -5 0 -5 10 -8 22 -6 30 4 35 34 7 41 -11 3 -18 10 -15 16
4 6 14 7 23 4 11 -4 14 -3 9 5 -8 13 -13 14 -33 5z"/>
<path d="M4935 564 c-19 -20 -16 -43 8 -58 20 -13 50 2 55 26 3 16 -23 48 -38
48 -5 0 -16 -7 -25 -16z m51 -15 c3 -6 -1 -18 -9 -27 -13 -12 -19 -13 -31 -3
-8 7 -12 19 -9 27 6 17 39 19 49 3z"/>
<path d="M5022 536 c1 -37 2 -38 5 -8 3 23 9 32 23 32 14 0 20 -9 23 -32 4
-32 4 -32 5 5 1 20 -1 38 -5 38 -51 9 -53 7 -51 -35z"/>
<path d="M5186 567 c-36 -26 4 -84 42 -61 23 15 26 38 7 58 -20 19 -26 20 -49
3z m47 -21 c3 -8 -1 -20 -9 -27 -12 -10 -18 -9 -31 3 -8 9 -12 21 -9 27 10 16
43 14 49 -3z"/>
<path d="M5363 573 c-8 -3 -12 -20 -11 -41 l1 -37 4 33 c3 19 10 32 19 32 8 0
14 5 14 10 0 11 -7 12 -27 3z"/>
<path d="M5428 573 c-13 -3 -18 -14 -17 -41 1 -36 1 -36 8 -7 4 21 12 30 26
30 14 0 22 -9 26 -30 l7 -30 1 31 c1 27 -14 56 -28 53 -4 -1 -14 -3 -23 -6z"/>
<path d="M5510 566 c-20 -26 -8 -61 23 -64 15 -2 27 1 27 6 0 6 -8 8 -19 5
-10 -3 -22 0 -25 6 -5 7 4 11 23 11 36 0 42 23 12 40 -25 13 -26 13 -41 -4z
m40 -17 c0 -5 -9 -9 -20 -9 -22 0 -27 16 -7 23 15 5 27 -1 27 -14z"/>
<path d="M1453 535 c0 -22 2 -30 4 -17 2 12 2 30 0 40 -3 9 -5 -1 -4 -23z"/>
<path d="M3071 568 c-1 -12 22 -58 29 -58 9 0 32 51 26 57 -2 2 -7 -5 -11 -16
-8 -27 -19 -27 -33 2 -6 12 -11 19 -11 15z"/>
<path d="M3273 535 c0 -22 2 -30 4 -17 2 12 2 30 0 40 -3 9 -5 -1 -4 -23z"/>
<path d="M4383 540 c2 -30 5 -35 27 -35 22 0 25 5 27 35 1 34 1 34 -5 5 -4
-17 -14 -30 -22 -30 -8 0 -18 13 -22 30 -6 29 -6 29 -5 -5z"/>
<path d="M4673 535 c0 -22 2 -30 4 -17 2 12 2 30 0 40 -3 9 -5 -1 -4 -23z"/>
<path d="M4793 535 c0 -22 2 -30 4 -17 2 12 2 30 0 40 -3 9 -5 -1 -4 -23z"/>
<path d="M4893 535 c0 -22 2 -30 4 -17 2 12 2 30 0 40 -3 9 -5 -1 -4 -23z"/>
<path d="M5140 526 c0 -34 -4 -46 -17 -49 -14 -4 -12 -5 5 -6 20 -1 22 3 22
49 0 28 -2 50 -5 50 -3 0 -5 -20 -5 -44z"/>
<path d="M5260 546 c0 -32 26 -53 48 -39 19 12 29 63 12 63 -6 0 -10 -6 -9
-12 4 -31 -2 -48 -16 -48 -10 0 -15 10 -15 30 0 17 -4 30 -10 30 -5 0 -10 -11
-10 -24z"/>
<path d="M5594 540 c10 -23 11 -40 5 -52 -5 -10 -7 -18 -5 -18 3 0 17 23 31
50 14 28 21 50 16 50 -5 0 -11 -10 -15 -22 l-6 -23 -20 25 -20 25 14 -35z"/>
</g>
</svg>
